<svg width="60" height="60" viewBox="0 0 60 60" fill="none" xmlns="http://www.w3.org/2000/svg">
<path d="M9.37497 29.9993C9.37441 26.3785 10.327 22.8215 12.137 19.6856C13.947 16.5498 16.5506 13.9457 19.6861 12.1351C22.8216 10.3245 26.3784 9.37117 29.9992 9.37103C33.6199 9.37089 37.1768 10.3239 40.3125 12.1343C40.7429 12.379 41.2526 12.4435 41.7305 12.3138C42.2083 12.1841 42.6154 11.8706 42.863 11.4418C43.1106 11.013 43.1785 10.5037 43.0519 10.025C42.9254 9.54636 42.6146 9.13717 42.1875 8.88676C37.5407 6.20394 32.1385 5.12934 26.8188 5.82961C21.499 6.52988 16.559 8.96589 12.7648 12.7598C8.9706 16.5538 6.53427 21.4937 5.83366 26.8134C5.13305 32.1331 6.2073 37.5353 8.88982 42.1823C11.5723 46.8292 15.7132 50.4612 20.6703 52.5149C25.6273 54.5687 31.1235 54.9294 36.3064 53.5412C41.4894 52.153 46.0694 49.0933 49.3363 44.8369C52.6032 40.5804 54.3743 35.3649 54.375 29.9993C54.375 29.502 54.1774 29.0251 53.8258 28.6734C53.4742 28.3218 52.9973 28.1243 52.5 28.1243C52.0027 28.1243 51.5258 28.3218 51.1741 28.6734C50.8225 29.0251 50.625 29.502 50.625 29.9993C50.625 35.4694 48.452 40.7154 44.5841 44.5833C40.7161 48.4513 35.4701 50.6243 30 50.6243C24.5299 50.6243 19.2838 48.4513 15.4159 44.5833C11.548 40.7154 9.37497 35.4694 9.37497 29.9993Z" fill="#C7C7C7"/>
<path d="M57.5775 12.5779C57.7518 12.4036 57.8901 12.1966 57.9845 11.9689C58.0788 11.7411 58.1274 11.497 58.1274 11.2504C58.1274 11.0039 58.0788 10.7598 57.9845 10.532C57.8901 10.3042 57.7518 10.0972 57.5775 9.92291C57.4032 9.74859 57.1962 9.6103 56.9684 9.51595C56.7407 9.42161 56.4965 9.37305 56.25 9.37305C56.0034 9.37305 55.7593 9.42161 55.5315 9.51595C55.3038 9.6103 55.0968 9.74859 54.9225 9.92291L30 34.8492L20.0775 24.9229C19.9032 24.7486 19.6962 24.6103 19.4684 24.516C19.2407 24.4216 18.9965 24.373 18.75 24.373C18.5034 24.373 18.2593 24.4216 18.0316 24.516C17.8038 24.6103 17.5968 24.7486 17.4225 24.9229C17.2482 25.0972 17.1099 25.3042 17.0155 25.532C16.9212 25.7597 16.8726 26.0039 16.8726 26.2504C16.8726 26.497 16.9212 26.7411 17.0155 26.9689C17.1099 27.1966 17.2482 27.4036 17.4225 27.5779L28.6725 38.8279C28.8467 39.0025 29.0536 39.1411 29.2814 39.2356C29.5092 39.3301 29.7534 39.3788 30 39.3788C30.2466 39.3788 30.4908 39.3301 30.7186 39.2356C30.9464 39.1411 31.1533 39.0025 31.3275 38.8279L57.5775 12.5779Z" fill="#C7C7C7"/>
</svg>
