<svg width="55" height="55" viewBox="0 0 55 55" fill="none" xmlns="http://www.w3.org/2000/svg">
<g clip-path="url(#clip0_204_1152)">
<path d="M29.2703 3.50281C28.6812 3.45932 28.0907 3.43753 27.5 3.4375V0C28.1756 0.000329407 28.8509 0.0255549 29.5247 0.075625L29.2703 3.50281ZM36.1591 5.04969C35.0572 4.62445 33.9255 4.28092 32.7731 4.02187L33.5259 0.666875C34.8459 0.9625 36.1361 1.35438 37.3966 1.8425L36.1591 5.04969ZM40.8684 7.49031C40.377 7.16252 39.8736 6.85293 39.3594 6.56219L41.0541 3.57156C42.2295 4.23726 43.3543 4.98867 44.4194 5.81969L42.3053 8.53188C41.8393 8.1683 41.36 7.82203 40.8684 7.49375V7.49031ZM47.1728 13.6434C46.4928 12.6775 45.7425 11.7629 44.9281 10.9072L47.4169 8.53531C48.3473 9.51844 49.2032 10.5611 49.9847 11.6634L47.1728 13.6434ZM49.7303 18.2909C49.5049 17.7459 49.2595 17.2092 48.9947 16.6822L52.0644 15.1353C52.6712 16.3423 53.1882 17.5923 53.6112 18.8753L50.3456 19.9513C50.161 19.3905 49.9557 18.8366 49.7303 18.2909ZM51.5522 26.9088C51.5243 25.7274 51.4094 24.5498 51.2084 23.3853L54.5944 22.8009C54.8235 24.1301 54.9565 25.4707 54.9931 26.8228L51.5522 26.9088ZM51.1019 32.1956C51.2165 31.6135 51.3093 31.0292 51.3803 30.4425L54.7937 30.8653C54.6281 32.2064 54.3639 33.5334 54.0031 34.8356L50.6894 33.9178C50.8475 33.3518 50.985 32.7777 51.1019 32.1956ZM47.8294 40.3734C48.4619 39.3743 49.0187 38.3339 49.5 37.2522L52.6419 38.6444C52.0919 39.8819 51.4559 41.0713 50.7341 42.2125L47.8294 40.3734ZM44.5156 44.5156C44.935 44.0963 45.336 43.6631 45.7188 43.2163L48.3244 45.4609C47.8833 45.9727 47.4235 46.468 46.9459 46.9459L44.5156 44.5156Z" fill="#358B4D"/>
<path d="M27.4998 3.4375C23.5428 3.43779 19.647 4.41391 16.1574 6.27941C12.6677 8.14492 9.692 10.8422 7.49376 14.1324C5.29552 17.4226 3.94261 21.2042 3.55486 25.1421C3.16711 29.08 3.75649 33.0528 5.2708 36.7086C6.7851 40.3643 9.1776 43.5902 12.2364 46.1005C15.2951 48.6108 18.9258 50.328 22.8067 51.1C26.6876 51.8721 30.6991 51.6751 34.4857 50.5266C38.2723 49.3781 41.7173 47.3135 44.5154 44.5156L46.9457 46.9459C43.748 50.1455 39.8104 52.5069 35.4818 53.8209C31.1533 55.135 26.5675 55.361 22.1307 54.4792C17.6939 53.5973 13.5431 51.6346 10.0461 48.7652C6.54908 45.8957 3.81384 42.2079 2.08271 38.0287C0.351584 33.8494 -0.321984 29.3077 0.121686 24.8059C0.565357 20.3041 2.11257 15.9813 4.62623 12.2204C7.1399 8.45947 10.5424 5.37663 14.5323 3.24501C18.5222 1.11339 22.9762 -0.00119877 27.4998 9.67513e-07V3.4375Z" fill="#358B4D"/>
<path d="M25.7812 10.3125C26.2371 10.3125 26.6743 10.4936 26.9966 10.8159C27.3189 11.1382 27.5 11.5754 27.5 12.0312V29.9406L38.665 36.3206C39.0493 36.5524 39.3277 36.9254 39.4406 37.3597C39.5536 37.7941 39.4921 38.2554 39.2695 38.6451C39.0468 39.0347 38.6806 39.3218 38.249 39.445C37.8175 39.5682 37.3548 39.5178 36.96 39.3044L24.9287 32.4294C24.6657 32.2791 24.447 32.062 24.2949 31.8C24.1428 31.538 24.0626 31.2405 24.0625 30.9375V12.0312C24.0625 11.5754 24.2436 11.1382 24.5659 10.8159C24.8882 10.4936 25.3254 10.3125 25.7812 10.3125Z" fill="#358B4D"/>
</g>
<defs>
<clipPath id="clip0_204_1152">
<rect width="55" height="55" fill="white"/>
</clipPath>
</defs>
</svg>
