<svg width="16" height="33" viewBox="0 0 16 33" fill="none" xmlns="http://www.w3.org/2000/svg">
<path d="M7.29288 32.7071C7.68339 33.0976 8.31656 33.0976 8.70709 32.7071L15.0712 26.3433C15.4617 25.9528 15.4618 25.3196 15.0712 24.9291C14.6807 24.5386 14.0476 24.5386 13.657 24.9291L8.00003 30.5858L2.34332 24.9288C1.9528 24.5383 1.31964 24.5382 0.929103 24.9288C0.538569 25.3193 0.538554 25.9524 0.929069 26.343L7.29288 32.7071ZM8.70787 0.295041C8.31736 -0.0954929 7.68419 -0.0955082 7.29366 0.295007L0.929543 6.65881C0.539009 7.04933 0.538994 7.68249 0.929509 8.07303C1.32002 8.46356 1.95319 8.46358 2.34372 8.07306L8.00071 2.41634L13.6574 8.07333C14.0479 8.46387 14.6811 8.46388 15.0716 8.07337C15.4622 7.68285 15.4622 7.04969 15.0717 6.65915L8.70787 0.295041ZM9 32L9.00075 1.00215L7.00075 1.00211L7 32L9 32Z" fill="#9E9E9E" fill-opacity="0.25"/>
</svg>
