<svg width="45" height="45" viewBox="0 0 45 45" fill="none" xmlns="http://www.w3.org/2000/svg">
<circle cx="22.5" cy="22.5" r="22.5" fill="white"/>
<path d="M19.9091 20.1562C19.8097 19.8106 19.67 19.5052 19.4901 19.2401C19.3101 18.9702 19.09 18.7429 18.8295 18.5582C18.5739 18.3688 18.2803 18.2244 17.9489 18.125C17.6222 18.0256 17.2599 17.9759 16.8622 17.9759C16.1188 17.9759 15.4654 18.1605 14.902 18.5298C14.3433 18.8991 13.9077 19.4366 13.5952 20.142C13.2827 20.8428 13.1264 21.6998 13.1264 22.7131C13.1264 23.7263 13.2803 24.5881 13.5881 25.2983C13.8958 26.0085 14.3314 26.5507 14.8949 26.9247C15.4583 27.294 16.1236 27.4787 16.8906 27.4787C17.5866 27.4787 18.1809 27.3556 18.6733 27.1094C19.1705 26.8584 19.5492 26.5057 19.8097 26.0511C20.0748 25.5966 20.2074 25.0592 20.2074 24.4389L20.8324 24.5312H17.0824V22.2159H23.169V24.0483C23.169 25.3267 22.8991 26.4252 22.3594 27.3438C21.8196 28.2576 21.0762 28.9631 20.1293 29.4602C19.1823 29.9527 18.098 30.1989 16.8764 30.1989C15.5128 30.1989 14.3149 29.8982 13.2827 29.2969C12.2505 28.6908 11.4455 27.8314 10.8679 26.7188C10.295 25.6013 10.0085 24.2756 10.0085 22.7415C10.0085 21.5625 10.179 20.5114 10.5199 19.5881C10.8655 18.66 11.3485 17.8741 11.9688 17.2301C12.589 16.5862 13.3111 16.0961 14.1349 15.7599C14.9588 15.4238 15.8513 15.2557 16.8125 15.2557C17.6364 15.2557 18.4034 15.3764 19.1136 15.6179C19.8239 15.8546 20.4536 16.1908 21.0028 16.6264C21.5568 17.062 22.009 17.5805 22.3594 18.1818C22.7098 18.7784 22.9347 19.4366 23.0341 20.1562H19.9091ZM24.3001 17.9901V15.4545H36.2461V17.9901H31.793V30H28.7532V17.9901H24.3001Z" fill="black"/>
</svg>
