<svg width="30" height="38" viewBox="0 0 30 38" fill="none" xmlns="http://www.w3.org/2000/svg">
<path fill-rule="evenodd" clip-rule="evenodd" d="M14.0868 0.491386C13.4683 1.12168 13.4567 1.99016 14.0591 2.56721C15.4616 3.91027 17.4283 1.87787 16.068 0.491386C15.8029 0.221174 15.3572 0 15.0774 0C14.7976 0 14.3518 0.221174 14.0868 0.491386ZM9.87407 2.34264C9.08239 2.62566 8.84206 3.71351 9.4478 4.27235C10.4855 5.2297 12.0573 3.87304 11.1994 2.76057C10.9124 2.38827 10.2929 2.19292 9.87407 2.34264ZM19.4952 2.34264C18.7036 2.62566 18.4632 3.71351 19.069 4.27235C20.1067 5.2297 21.6785 3.87304 20.8206 2.76057C20.5336 2.38827 19.9141 2.19292 19.4952 2.34264ZM14.4695 3.88085C14.4119 4.03377 14.1718 5.26473 13.9358 6.61639C13.6998 7.96805 13.409 9.10695 13.2898 9.14758C13.1704 9.18801 12.6436 8.26989 12.1191 7.10738C11.4549 5.63582 11.0836 5.02574 10.8963 5.0988C10.7484 5.15665 10.5462 5.20408 10.447 5.20408C10.3479 5.20408 10.2668 6.2453 10.2668 7.5177C10.2668 9.01668 10.1973 9.78748 10.0694 9.70702C9.96086 9.63857 9.50552 9.02528 9.05726 8.34415C8.60918 7.66301 8.21864 7.07475 8.18958 7.03732C8.16033 6.99969 7.95318 7.02832 7.72894 7.10077C7.22393 7.2641 7.22256 7.53151 7.71579 9.74185C8.48195 13.1751 8.36846 12.9648 9.53419 13.1121C10.8656 13.2804 21.3836 13.1543 21.566 12.968C21.7395 12.7906 22.8157 8.26489 22.8257 7.66942C22.832 7.29753 22.1513 6.79733 21.9651 7.03732C21.9361 7.07475 21.5455 7.66301 21.0975 8.34415C20.6492 9.02528 20.1939 9.63857 20.0853 9.70702C19.9575 9.78748 19.8879 9.01668 19.8879 7.5177C19.8879 6.2453 19.8069 5.20408 19.7077 5.20408C19.6085 5.20408 19.4063 5.15665 19.2584 5.0988C19.0713 5.02574 18.7006 5.63402 18.0387 7.10037C17.5158 8.25908 17.0146 9.20723 16.9248 9.20723C16.7153 9.20723 16.4689 8.21765 16.0397 5.65444C15.6978 3.61284 15.6935 3.60283 15.1353 3.60283C14.8266 3.60283 14.527 3.72793 14.4695 3.88085ZM6.13654 5.31717C5.6759 6.19446 6.50588 7.06595 7.40438 6.64862C7.95887 6.39122 8.11104 5.48851 7.67495 5.04396C7.25181 4.61262 6.42989 4.75853 6.13654 5.31717ZM22.326 5.07498C21.8731 6.27833 23.0186 7.30593 23.8585 6.44946C24.2136 6.08778 24.254 5.91864 24.0961 5.45868C23.9408 5.00533 23.7718 4.89244 23.1717 4.8416C22.6628 4.79857 22.4032 4.87002 22.326 5.07498ZM8.49334 14.8617C8.49 15.3296 8.35746 15.8873 8.19881 16.1008C7.86462 16.5514 7.82359 17.9871 8.11438 19.0546C8.22532 19.4617 8.63333 20.2723 9.02113 20.856C9.40911 21.4396 9.8941 22.3121 10.0989 22.7945C10.654 24.1013 11.5678 25.1686 12.6964 25.8285C13.5472 26.3259 13.9156 26.4169 15.0774 26.4169C16.2472 26.4169 16.6056 26.3271 17.4854 25.8127C18.5846 25.1702 19.5021 24.0645 20.1031 22.6586C20.3054 22.1856 20.6887 21.5075 20.9549 21.1518C22.1507 19.5535 22.6496 17.036 21.9559 16.1008C21.7973 15.8873 21.6647 15.3296 21.6614 14.8617L21.6551 14.011H15.0774H8.49962L8.49334 14.8617ZM7.39672 25.5336C6.01225 26.1239 4.39079 26.9477 3.79349 27.3645C1.83706 28.7295 0.396432 31.5544 0.116043 34.5753L0 35.8245L0.673679 36.1113C3.11589 37.1516 7.68143 37.8231 13.3102 37.9698C19.7022 38.1365 24.9638 37.6101 28.4109 36.4588L30 35.9282L29.9835 34.7227C29.946 31.9535 28.3805 28.7736 26.3612 27.3645C25.7639 26.9477 24.1332 26.1199 22.7376 25.5248L20.1999 24.4432L19.5681 25.1958C19.2204 25.6097 18.377 26.2564 17.6939 26.6329C16.6111 27.2298 16.2757 27.3166 15.0774 27.311C13.386 27.303 12.2478 26.7904 10.8713 25.4167L9.91374 24.4606L7.39672 25.5336Z" fill="#702323"/>
</svg>
