<svg width="26" height="31" viewBox="0 0 26 31" fill="none" xmlns="http://www.w3.org/2000/svg">
<path d="M24.5 13.25C24.5 22 13.25 29.5 13.25 29.5C13.25 29.5 2 22 2 13.25C2 10.2663 3.18526 7.40483 5.29505 5.29505C7.40483 3.18526 10.2663 2 13.25 2C16.2337 2 19.0952 3.18526 21.205 5.29505C23.3147 7.40483 24.5 10.2663 24.5 13.25Z" stroke="#FFCC00" stroke-width="3" stroke-linecap="round" stroke-linejoin="round"/>
<path d="M13.25 17C15.3211 17 17 15.3211 17 13.25C17 11.1789 15.3211 9.5 13.25 9.5C11.1789 9.5 9.5 11.1789 9.5 13.25C9.5 15.3211 11.1789 17 13.25 17Z" stroke="#FFCC00" stroke-width="3" stroke-linecap="round" stroke-linejoin="round"/>
</svg>
