<svg width="37" height="29" viewBox="0 0 37 29" fill="none" xmlns="http://www.w3.org/2000/svg">
<path fill-rule="evenodd" clip-rule="evenodd" d="M17.3065 0.263137C16.6181 0.67512 16.2191 1.3323 16.1483 2.17083C16.1128 2.59086 16.1616 3.09124 16.261 3.32686C16.4316 3.73121 17.3211 4.62386 17.6657 4.73654C17.7804 4.77414 17.4139 5.79029 16.5625 7.79693C13.5392 14.9215 11.5979 18.1766 10.3718 18.1766C9.03249 18.1766 6.35685 14.8245 3.48825 9.55268L2.68416 8.07487L3.09822 7.66843C4.84777 5.95112 2.47027 3.15771 0.660781 4.80453C-0.395366 5.76587 -0.145854 7.48985 1.12672 8.02325L1.67141 8.25165L2.48073 12.3468C3.22757 16.1257 4.10545 19.4833 5.22012 22.8251L5.63673 24.074L18.4449 24.1093L31.2531 24.1449L31.4021 23.7624C31.8371 22.6457 32.8903 18.7999 33.436 16.3354C35.3731 7.5874 35.2076 8.20725 35.6307 8.11608C36.0922 8.01659 36.6831 7.4367 36.9018 6.86889C37.255 5.95167 36.6142 4.71253 35.6382 4.42543C34.9415 4.22062 34.489 4.33371 33.869 4.86808C33.0338 5.58784 33.0144 6.84669 33.8261 7.64346L34.2744 8.08347L33.5868 9.3487C30.6778 14.7028 27.9508 18.1796 26.6635 18.1756C25.7726 18.1728 24.658 16.7498 22.9934 13.4903C21.93 11.4081 19.228 5.24732 19.2323 4.9154C19.2333 4.84422 19.4581 4.64357 19.7319 4.46956C20.3527 4.07478 20.7505 3.44633 20.8685 2.67371C20.997 1.83212 20.4396 0.725907 19.6741 0.303655C18.9698 -0.0848778 17.9179 -0.102917 17.3065 0.263137ZM9.25302 7.05969C8.34785 7.60155 8.2496 8.90022 9.05963 9.61679L9.50083 10.0071L8.37513 11.89L7.24958 13.773L7.76217 14.4912C8.88801 16.0688 9.84591 16.9277 10.4794 16.9277C10.961 16.9277 12.0567 16.0054 12.8289 14.95L13.2704 14.3466L12.5925 13.313C12.2199 12.7443 11.6257 11.7654 11.2723 11.1373L10.6296 9.99547L11.1133 9.52077C11.5266 9.11503 11.5969 8.95129 11.5969 8.39388C11.5969 7.83717 11.5265 7.6726 11.1162 7.26991C10.5536 6.71764 9.9402 6.64854 9.25302 7.05969ZM25.5586 7.01528C25.1106 7.25381 24.7439 7.8745 24.7439 8.39388C24.7439 8.85582 25.0825 9.49884 25.4638 9.76096C25.7611 9.96536 25.7609 9.96591 25.2249 10.9142C24.93 11.436 24.4466 12.2542 24.1508 12.7327C23.855 13.211 23.613 13.6714 23.613 13.7558C23.613 14.0277 24.8286 15.5899 25.5684 16.2686C26.5427 17.1624 26.9162 17.1579 27.9043 16.2406C28.3114 15.8626 28.8431 15.2819 29.0858 14.9501L29.5272 14.3469L28.947 13.4519C28.628 12.9596 28.039 11.9889 27.6385 11.295L26.9101 10.0334L27.3821 9.52784C27.7755 9.10656 27.854 8.91507 27.854 8.37765C27.854 7.81802 27.7873 7.67107 27.3492 7.26547C26.7854 6.74359 26.2177 6.66435 25.5586 7.01528ZM5.65949 26.988V29H18.4531H31.2468V26.988V24.9759H18.4531H5.65949V26.988Z" fill="#FFCC00"/>
</svg>
