<svg width="29" height="24" viewBox="0 0 29 24" fill="none" xmlns="http://www.w3.org/2000/svg">
<g clip-path="url(#clip0_138_926)">
<path d="M25.3913 4.66485H23.6304V21.5399C23.6304 21.8456 23.5617 22.1322 23.4241 22.3996C23.2865 22.6671 23.0985 22.9002 22.8601 23.099C22.6216 23.2977 22.3419 23.4543 22.0209 23.569C21.6999 23.6836 21.356 23.7409 20.9891 23.7409H6.90217C6.53533 23.7409 6.19141 23.6836 5.87041 23.569C5.54942 23.4543 5.2697 23.2977 5.03125 23.099C4.7928 22.9002 4.60479 22.6671 4.46722 22.3996C4.32965 22.1322 4.26087 21.8456 4.26087 21.5399V4.66485H2.5V3.19746H9.54348V1.73007C9.54348 1.52371 9.58933 1.33265 9.68105 1.15687C9.77276 0.981084 9.89657 0.828231 10.0525 0.698306C10.2084 0.568381 10.3964 0.461383 10.6165 0.377314C10.8366 0.293245 11.0659 0.255031 11.3043 0.262674H16.587C16.8346 0.262674 17.0639 0.300887 17.2748 0.377314C17.4857 0.453741 17.6692 0.556917 17.8251 0.686842C17.981 0.816767 18.1094 0.973442 18.2103 1.15687C18.3111 1.34029 18.357 1.53136 18.3478 1.73007V3.19746H25.3913V4.66485ZM11.3043 3.19746H16.587V1.73007H11.3043V3.19746ZM21.8696 4.66485H6.02174V21.5399C6.02174 21.7386 6.10887 21.9105 6.28312 22.0557C6.45737 22.2009 6.66372 22.2735 6.90217 22.2735H20.9891C21.2276 22.2735 21.4339 22.2009 21.6082 22.0557C21.7824 21.9105 21.8696 21.7386 21.8696 21.5399V4.66485ZM11.3043 19.3388H9.54348V7.59963H11.3043V19.3388ZM14.8261 19.3388H13.0652V7.59963H14.8261V19.3388ZM18.3478 19.3388H16.587V7.59963H18.3478V19.3388Z" fill="#F8F8F8"/>
</g>
<defs>
<clipPath id="clip0_138_926">
<rect width="28.1739" height="23.4783" fill="white" transform="translate(0.739136 0.261719)"/>
</clipPath>
</defs>
</svg>
